<?xml version="1.0" encoding="utf-8"?>
<!-- Generator: Adobe Illustrator 16.0.0, SVG Export Plug-In . SVG Version: 6.00 Build 0)  -->
<!DOCTYPE svg PUBLIC "-//W3C//DTD SVG 1.1//EN" "http://www.w3.org/Graphics/SVG/1.1/DTD/svg11.dtd">
<svg version="1.1" id="레이어_1" xmlns="http://www.w3.org/2000/svg" xmlns:xlink="http://www.w3.org/1999/xlink" x="0px"
	 y="0px" width="100px" height="100px" viewBox="0 0 100 100" enable-background="new 0 0 100 100" xml:space="preserve">
<rect fill="#FED95C" width="100" height="100"/>
<g>
	<path fill="#DAD5B7" d="M35.426,78.033c0,0,12.629,7.147,24.06,0V64.597h-24.06V78.033z"/>
	<path fill="#F97396" d="M34.317,65.739c0,0,15.725,7.72,26.875,0l4.572-50.604l-33.734,4.002L34.317,65.739z"/>
	<path d="M33.311,45.256c0,0,7.008-0.774,8.438-4.777c1.43-4.002,10.292-13.992,19.442-10.562l3.394,1.702l-2.702,26.466
		c0,0-10.127,11.556-27.854,4.123L33.311,45.256z"/>
	<path fill="#FAD69C" d="M46.609,66.734l3.145-2.858v-6.862c0,0-7.432-3.717-3.145-10.292c0,0,4.863-6.576,7.72-8.291
		c0,0,13.437,6.003,2.859,17.153l-1.715,1.145l-0.287,5.718l3.145,1.144l0.572,3.145c0,0-1.001,3.27-13.627,2.288L46.609,66.734z"/>
	<polygon fill="#E85B8E" points="32.029,19.138 32.029,21.966 65.515,17.894 65.764,15.136 	"/>
</g>
<g>
	<path fill="#DAD5B7" d="M35.38,78.033c0,0,12.649,7.157,24.094,0V64.576H35.38V78.033z"/>
	<g>
		<path fill="#F97396" d="M34.269,65.721c0,0,15.748,7.73,26.914,0l4.581-50.677l-33.785,4.008L34.269,65.721z"/>
		<path fill="#BC6319" d="M33.262,45.208c0,0,7.018-0.775,8.45-4.784s10.309-14.012,19.47-10.577l3.401,1.704l-2.709,26.504
			c0,0-10.141,11.573-27.891,4.13L33.262,45.208z"/>
		<path fill="#FAD69C" d="M46.582,66.718l3.149-2.863v-6.872c0,0-7.445-3.723-3.149-10.307c0,0,4.867-6.586,7.731-8.303
			c0,0,13.456,6.012,2.861,17.178l-1.717,1.146l-0.286,5.726l3.149,1.146l0.571,3.149c0,0-1.003,3.274-13.646,2.291L46.582,66.718z"
			/>
		<polygon fill="#E85B8E" points="31.979,19.052 31.979,21.885 65.515,17.806 65.764,15.044 		"/>
	</g>
</g>
</svg>
