<?xml version="1.0" encoding="utf-8"?>
<!-- Generator: Adobe Illustrator 16.0.0, SVG Export Plug-In . SVG Version: 6.00 Build 0)  -->
<!DOCTYPE svg PUBLIC "-//W3C//DTD SVG 1.1//EN" "http://www.w3.org/Graphics/SVG/1.1/DTD/svg11.dtd">
<svg version="1.1" id="레이어_1" xmlns="http://www.w3.org/2000/svg" xmlns:xlink="http://www.w3.org/1999/xlink" x="0px"
	 y="0px" width="100px" height="100px" viewBox="0 0 100 100" enable-background="new 0 0 100 100" xml:space="preserve">
<rect fill="#FED95C" width="100" height="100"/>
<g>
	<path fill="#DAD5B7" d="M35.426,78.033c0,0,12.629,7.147,24.06,0V64.597h-24.06V78.033z"/>
	<path fill="#F97396" d="M34.317,65.739c0,0,15.725,7.72,26.875,0l4.572-50.604l-33.734,4.002L34.317,65.739z"/>
	<path d="M33.311,45.256c0,0,7.008-0.774,8.438-4.777c1.43-4.002,10.292-13.992,19.442-10.562l3.394,1.702l-2.702,26.466
		c0,0-10.127,11.556-27.854,4.123L33.311,45.256z"/>
	<path fill="#FAD69C" d="M46.609,66.734l3.145-2.858v-6.862c0,0-7.432-3.717-3.145-10.292c0,0,4.863-6.576,7.72-8.291
		c0,0,13.437,6.003,2.859,17.153l-1.715,1.145l-0.287,5.718l3.145,1.144l0.572,3.145c0,0-1.001,3.27-13.627,2.288L46.609,66.734z"/>
	<polygon fill="#E85B8E" points="32.029,19.138 32.029,21.966 65.515,17.894 65.764,15.136 	"/>
</g>
</svg>
