<?xml version="1.0" encoding="utf-8"?>
<!-- Generator: Adobe Illustrator 16.0.0, SVG Export Plug-In . SVG Version: 6.00 Build 0)  -->
<!DOCTYPE svg PUBLIC "-//W3C//DTD SVG 1.1//EN" "http://www.w3.org/Graphics/SVG/1.1/DTD/svg11.dtd">
<svg version="1.1" id="레이어_1" xmlns="http://www.w3.org/2000/svg" xmlns:xlink="http://www.w3.org/1999/xlink" x="0px"
	 y="0px" width="100px" height="100px" viewBox="0 0 100 100" enable-background="new 0 0 100 100" xml:space="preserve">
<rect fill="#FED95C" width="100" height="100"/>
<g>
	<path fill="#DD367E" d="M88.186,87.553l-5.885,3.082L4.674,34.027c0,0-1.963-9.528,2.241-10.089s5.886,0,5.886,0l35.87,26.623
		L88.186,87.553z"/>
	<polygon fill="#FBAACA" points="8.492,30.569 12.839,25.074 47.218,50.903 45.085,57.576 	"/>
	<polygon fill="#A68CCB" points="45.085,57.576 48.023,59.759 52.414,60.635 75.613,79.134 76.371,81.635 77.24,81.635 
		78.273,78.273 58.898,57.576 55.42,55.134 51.857,51.925 47.131,50.648 	"/>
	<path fill="#FBAACA" d="M20.208,12.046c0,0-1.683,6.444,2.521,10.368s26.063,27.184,26.063,27.184l6.165,6.314l3.924,1.532
		l18.215,20.189v1.108c0,0-6.727,2.802-1.682,6.445c0,0,8.408,3.362,8.408-1.682l1.682,2.779h3.363V76.22
		c0,0-2.242-7.286-18.217-22.419C54.678,38.668,33.94,14.848,33.94,14.848S24.693,5.601,20.208,12.046z"/>
	
		<ellipse transform="matrix(0.6531 0.7573 -0.7573 0.6531 58.8027 -29.0608)" fill="#A28ABA" cx="61.119" cy="49.648" rx="7.542" ry="3.783"/>
	<polygon fill="#616161" points="84.543,89.46 88.867,82.759 96.033,88.631 97.434,93.114 96.033,94.516 	"/>
</g>
</svg>
