<?xml version="1.0" encoding="utf-8"?>
<!-- Generator: Adobe Illustrator 16.0.0, SVG Export Plug-In . SVG Version: 6.00 Build 0)  -->
<!DOCTYPE svg PUBLIC "-//W3C//DTD SVG 1.1//EN" "http://www.w3.org/Graphics/SVG/1.1/DTD/svg11.dtd">
<svg version="1.1" id="레이어_1" xmlns="http://www.w3.org/2000/svg" xmlns:xlink="http://www.w3.org/1999/xlink" x="0px"
	 y="0px" width="100px" height="100px" viewBox="0 0 100 100" enable-background="new 0 0 100 100" xml:space="preserve">
<rect fill="#FED95C" width="100" height="100"/>
<path fill="#939393" d="M95.407,29.966L88.88,33.42c0,0-5.672-5.785-10.972-1.402c0,0-4.076,2.668-4.574,8.862
	c0,0-15.261,11.608-18.417,9.485c0,0-1.974-4.067-1.155-8.253c0.819-4.188,1.506-12.241,1.506-12.241s4.497-3.515,4.816-3.621
	c0.315-0.106,7.069-8.359-3.676-13.503c0,0-13.202-0.462-7.614,12.737c0,0,2.225,4.011,3.409,4.706c0,0-1.81,22.389-5.27,26.577
	c-3.462,4.189-30.284,35.192-30.74,37.852l29.178-29.765l-14.45,38.821c0,0,18.047-34.788,21.298-43.919
	c0,0,17.446-14.702,21.24-15.973c0,0,2.625,0.582,3.324,0.981c0.697,0.401,5.943,2.805,10.883-1.705c0,0,3.019-4.254,2.105-7.4
	l6.37-3.534L95.407,29.966z M51.953,15.967c0,0,6.969-3.92,8.48,4.596c0,0-0.39,7.567-7.264,5.462
	C53.17,26.025,45.81,22.568,51.953,15.967z M84.629,43.074c0,0-7.054,2.767-7.973-4.362c0,0,0.111-8.132,8.661-5.261
	C85.317,33.451,91.764,38.181,84.629,43.074z"/>
</svg>
