<?xml version="1.0" encoding="utf-8"?>
<!-- Generator: Adobe Illustrator 16.0.0, SVG Export Plug-In . SVG Version: 6.00 Build 0)  -->
<!DOCTYPE svg PUBLIC "-//W3C//DTD SVG 1.1//EN" "http://www.w3.org/Graphics/SVG/1.1/DTD/svg11.dtd">
<svg version="1.1" id="레이어_1" xmlns="http://www.w3.org/2000/svg" xmlns:xlink="http://www.w3.org/1999/xlink" x="0px"
	 y="0px" width="100px" height="100px" viewBox="0 0 100 100" enable-background="new 0 0 100 100" xml:space="preserve">
<rect fill="#FED95C" width="100" height="100"/>
<path fill="#040404" d="M63.172,34.612c-4.359-6.538-12.422-2.396-12.422-2.396c-8.717,5.23-41.625,5.229-41.625,5.229
	c-6.538-0.871-5.012,2.397-5.012,2.397c2.615,2.834,6.538,3.487,6.538,3.487l19.396,3.269C18.278,51.828,7.817,57.277,7.817,57.277
	c-3.922,4.357,5.23,2.615,5.23,2.615c2.833-0.654,27.023-11.77,27.023-11.77s9.153,0.219,20.485-2.397
	C71.889,43.111,63.172,34.612,63.172,34.612z M15.966,55.715c0,0,1.828-2.707,16.15-7.684h2.186
	C34.302,48.031,13.896,59.248,15.966,55.715z M34.187,45.579c0,0-19.339-4.751-22.32-5.071c-0.222-0.007-0.344-0.011-0.344-0.011
	c0.058-0.012,0.177-0.007,0.344,0.011c3.652,0.114,35.657,0.965,39.754-4.152l1.09,0.872C52.711,37.227,45.479,41.291,34.187,45.579
	z M47.836,45.063c0,0,7.422-4.365,8.818-2.357C56.654,42.706,54.646,44.539,47.836,45.063z"/>
<path fill="#040404" d="M44.522,49.008c-1.546,2.145-2.838,5.705-2.696,8.521s0.743,3.084,7.844,6.156
	c7.101,3.072,32.388,8.703,39.315,9.813s6.977-1.885,6.977-1.885c1.551-3.916-20.336-13.533-20.336-13.533
	c-0.868-0.963-23.661-10.328-23.661-10.328C48.857,45.805,46.067,46.864,44.522,49.008z M74.584,67.775
	c0,0-25.033-5.867-25.468-9.002c0,0-1.761-2.361,16.797,5.764l8.924,3.002L74.584,67.775z M83.126,66.561
	c-0.721,1.525-0.721,1.525-0.721,1.525l0.445-0.68c0,0-0.09,2.441-5.902-0.768c0,0-15.671-4.424-15.713-6.627
	c0,0-0.729-1.799,5.78,0.762C67.016,60.773,83.847,65.033,83.126,66.561z M64.614,56.541c0,0,8.1,3.891,8.868,4.592
	c0,0-24.518-6.582-22.479-8.83C51.004,52.303,51.687,51.006,64.614,56.541z"/>
</svg>
